HIERARCHY
ROOT hip
{
OFFSET -0.11 97.68 3.22
CHANNELS 6 Xposition Yposition Zposition Zrotation Xrotation Yrotation
JOINT abdomen
{
OFFSET -0.02 7.24 0
CHANNELS 6 Xposition Yposition Zposition Zrotation Xrotation Yrotation
JOINT chest
{
OFFSET 0 16.55 -0
CHANNELS 6 Xposition Yposition Zposition Zrotation Xrotation Yrotation
JOINT neck
{
OFFSET 0 34.21 -0
CHANNELS 6 Xposition Yposition Zposition Zrotation Xrotation Yrotation
JOINT head
{
OFFSET 0 6.29 0
CHANNELS 6 Xposition Yposition Zposition Zrotation Xrotation Yrotation
End Site
{
OFFSET 0 0 0
}
}
}
JOINT lCollar
{
OFFSET 4.06 26.61 -1.12
CHANNELS 6 Xposition Yposition Zposition Zrotation Xrotation Yrotation
JOINT lShldr
{
OFFSET 14.17 0 0
CHANNELS 6 Xposition Yposition Zposition Zrotation Xrotation Yrotation
JOINT lForeArm
{
OFFSET 26.12 0 0
CHANNELS 6 Xposition Yposition Zposition Zrotation Xrotation Yrotation
JOINT lHand
{
OFFSET 27.71 0 0
CHANNELS 6 Xposition Yposition Zposition Zrotation Xrotation Yrotation
JOINT lThumb1
{
OFFSET 2.29 -0.46 1.83
CHANNELS 6 Xposition Yposition Zposition Zrotation Xrotation Yrotation
JOINT lThumb2
{
OFFSET 5.29 0 0
CHANNELS 6 Xposition Yposition Zposition Zrotation Xrotation Yrotation
JOINT lThumb3
{
OFFSET 3.01 0 0
CHANNELS 6 Xposition Yposition Zposition Zrotation Xrotation Yrotation
End Site
{
OFFSET 0 0 0
}
}
}
}
JOINT lIndex1
{
OFFSET 9.37 0.29 2.59
CHANNELS 6 Xposition Yposition Zposition Zrotation Xrotation Yrotation
JOINT lIndex2
{
OFFSET 4.34 0 0
CHANNELS 6 Xposition Yposition Zposition Zrotation Xrotation Yrotation
JOINT lIndex3
{
OFFSET 2.16 0 0
CHANNELS 6 Xposition Yposition Zposition Zrotation Xrotation Yrotation
End Site
{
OFFSET 0 0 0
}
}
}
}
JOINT lMid1
{
OFFSET 9.47 0.83 0.29
CHANNELS 6 Xposition Yposition Zposition Zrotation Xrotation Yrotation
JOINT lMid2
{
OFFSET 4.77 0 0
CHANNELS 6 Xposition Yposition Zposition Zrotation Xrotation Yrotation
JOINT lMid3
{
OFFSET 2.87 0 0
CHANNELS 6 Xposition Yposition Zposition Zrotation Xrotation Yrotation
End Site
{
OFFSET 0 0 0
}
}
}
}
JOINT lRing1
{
OFFSET 8.65 1.01 -1.70
CHANNELS 6 Xposition Yposition Zposition Zrotation Xrotation Yrotation
JOINT lRing2
{
OFFSET 4.54 0 0
CHANNELS 6 Xposition Yposition Zposition Zrotation Xrotation Yrotation
JOINT lRing3
{
OFFSET 2.50 0 0
CHANNELS 6 Xposition Yposition Zposition Zrotation Xrotation Yrotation
End Site
{
OFFSET 0 0 0
}
}
}
}
JOINT lPinky1
{
OFFSET 7.69 0.66 -3.90
CHANNELS 6 Xposition Yposition Zposition Zrotation Xrotation Yrotation
JOINT lPinky2
{
OFFSET 3.21 0 0
CHANNELS 6 Xposition Yposition Zposition Zrotation Xrotation Yrotation
JOINT lPinky3
{
OFFSET 1.92 0 0
CHANNELS 6 Xposition Yposition Zposition Zrotation Xrotation Yrotation
End Site
{
OFFSET 0 0 0
}
}
}
}
}
}
}
}
JOINT rCollar
{
OFFSET -4.06 26.61 -1.12
CHANNELS 6 Xposition Yposition Zposition Zrotation Xrotation Yrotation
JOINT rShldr
{
OFFSET -14.17 0 0
CHANNELS 6 Xposition Yposition Zposition Zrotation Xrotation Yrotation
JOINT rForeArm
{
OFFSET -26.12 0 0
CHANNELS 6 Xposition Yposition Zposition Zrotation Xrotation Yrotation
JOINT rHand
{
OFFSET -27.71 0 0
CHANNELS 6 Xposition Yposition Zposition Zrotation Xrotation Yrotation
JOINT rThumb1
{
OFFSET -2.29 -0.46 1.83
CHANNELS 6 Xposition Yposition Zposition Zrotation Xrotation Yrotation
JOINT rThumb2
{
OFFSET -5.29 0 0
CHANNELS 6 Xposition Yposition Zposition Zrotation Xrotation Yrotation
JOINT rThumb3
{
OFFSET -3.01 0 0
CHANNELS 6 Xposition Yposition Zposition Zrotation Xrotation Yrotation
End Site
{
OFFSET 0 0 0
}
}
}
}
JOINT rIndex1
{
OFFSET -9.37 0.29 2.59
CHANNELS 6 Xposition Yposition Zposition Zrotation Xrotation Yrotation
JOINT rIndex2
{
OFFSET -4.34 0 0
CHANNELS 6 Xposition Yposition Zposition Zrotation Xrotation Yrotation
JOINT rIndex3
{
OFFSET -2.16 0 0
CHANNELS 6 Xposition Yposition Zposition Zrotation Xrotation Yrotation
End Site
{
OFFSET 0 0 0
}
}
}
}
JOINT rMid1
{
OFFSET -9.47 0.83 0.29
CHANNELS 6 Xposition Yposition Zposition Zrotation Xrotation Yrotation
JOINT rMid2
{
OFFSET -4.77 0 0
CHANNELS 6 Xposition Yposition Zposition Zrotation Xrotation Yrotation
JOINT rMid3
{
OFFSET -2.87 0 0
CHANNELS 6 Xposition Yposition Zposition Zrotation Xrotation Yrotation
End Site
{
OFFSET 0 0 0
}
}
}
}
JOINT rRing1
{
OFFSET -8.65 1.01 -1.70
CHANNELS 6 Xposition Yposition Zposition Zrotation Xrotation Yrotation
JOINT rRing2
{
OFFSET -4.54 0 0
CHANNELS 6 Xposition Yposition Zposition Zrotation Xrotation Yrotation
JOINT rRing3
{
OFFSET -2.50 0 0
CHANNELS 6 Xposition Yposition Zposition Zrotation Xrotation Yrotation
End Site
{
OFFSET 0 0 0
}
}
}
}
JOINT rPinky1
{
OFFSET -7.69 0.66 -3.90
CHANNELS 6 Xposition Yposition Zposition Zrotation Xrotation Yrotation
JOINT rPinky2
{
OFFSET -3.21 0 0
CHANNELS 6 Xposition Yposition Zposition Zrotation Xrotation Yrotation
JOINT rPinky3
{
OFFSET -1.92 0 0
CHANNELS 6 Xposition Yposition Zposition Zrotation Xrotation Yrotation
End Site
{
OFFSET 0 0 0
}
}
}
}
}
}
}
}
}
}
JOINT lThigh
{
OFFSET 8.73 -0 0
CHANNELS 6 Xposition Yposition Zposition Zrotation Xrotation Yrotation
JOINT lShin
{
OFFSET 0 -46.66 0
CHANNELS 6 Xposition Yposition Zposition Zrotation Xrotation Yrotation
JOINT lFoot
{
OFFSET 0 -40.14 0
CHANNELS 6 Xposition Yposition Zposition Zrotation Xrotation Yrotation
JOINT lToes
{
OFFSET 0 -8.88 14.22
CHANNELS 6 Xposition Yposition Zposition Zrotation Xrotation Yrotation
End Site
{
OFFSET 0 0 0
}
}
}
}
}
JOINT rThigh
{
OFFSET -8.73 0 -0
CHANNELS 6 Xposition Yposition Zposition Zrotation Xrotation Yrotation
JOINT rShin
{
OFFSET 0 -46.66 0
CHANNELS 6 Xposition Yposition Zposition Zrotation Xrotation Yrotation
JOINT rFoot
{
OFFSET 0 -40.14 0
CHANNELS 6 Xposition Yposition Zposition Zrotation Xrotation Yrotation
JOINT rToes
{
OFFSET 0 -8.88 14.22
CHANNELS 6 Xposition Yposition Zposition Zrotation Xrotation Yrotation
End Site
{
OFFSET 0 0 0
}
}
}
}
}
}
MOTION
Frames: 9
Frame Time: 0.03
-0.11 97.68 3.22 -0.35 -5.56 -2.18 -0.02 7.24 0 -0.04 0.96 -0.30 0 16.55 -0 -0.01 7.92 -0.91 0 34.21 -0 0.02 0.58 0.02 0 6.29 0 0.80 -1.39 2.16 4.06 26.61 -1.12 -14.03 -5.44 2.98 14.17 0 0 -62.56 26.12 1.78 26.12 0 0 0 0 -26.11 27.71 0 0 -22.60 -7.33 51.81 2.29 -0.46 1.83 57.19 34.31 -81.43 5.29 0 0 0 0 0 3.01 0 0 0 0 0 9.37 0.29 2.59 24.22 -1.62 -3.34 4.34 0 0 0 0 0 2.16 0 0 0 0 0 9.47 0.83 0.29 16.96 14.27 7.03 4.77 0 0 0 0 0 2.87 0 0 -0 0 0 8.65 1.01 -1.70 23.79 3.43 14.82 4.54 0 0 0 0 0 2.50 0 0 0 0 0 7.69 0.66 -3.90 21.17 -7.01 16.30 3.21 0 0 0 0 0 1.92 0 0 0 0 0 -4.06 26.61 -1.12 16.00 -5.54 -2.79 -14.17 0 0 61.44 20.26 -4.75 -26.12 0 0 0 0 31.42 -27.71 0 0 16.83 13.76 -24.07 -2.29 -0.46 1.83 -57.19 34.31 81.43 -5.29 0 0 0 0 0 -3.01 0 0 0 0 0 -9.37 0.29 2.59 -24.22 -1.62 3.34 -4.34 0 0 0 0 0 -2.16 0 0 -0 0 0 -9.47 0.83 0.29 -16.96 14.27 -7.03 -4.77 0 0 0 0 0 -2.87 0 0 0 0 0 -8.65 1.01 -1.70 -23.79 3.43 -14.82 -4.54 0 0 0 0 0 -2.50 0 0 -0 0 0 -7.69 0.66 -3.90 -21.17 -7.01 -16.30 -3.21 0 0 -0 0 0 -1.92 0 0 0 0 0 8.73 -0 0 9.12 10.75 -4.48 0 -46.66 0 0 6.85 0 0 -40.14 0 -2.66 -0.30 -0.17 0 -8.88 14.22 0 0 0 -8.73 0 -0 -8.61 10.52 2.24 0 -46.66 0 0 7.89 0 0 -40.14 0 3.13 -0.80 0.22 0 -8.88 14.22 0 0 0 
-0.10 97.67 3.19 -0.35 -5.56 -2.21 -0.02 7.24 0 -0.06 0.97 -0.33 0 16.55 -0 -0.01 7.92 -0.89 0 34.21 -0 0.01 0.58 0.01 0 6.29 0 0.72 -1.36 2.22 4.06 26.61 -1.12 -14.03 -5.43 2.93 14.17 0 0 -62.54 26.57 1.70 26.12 0 0 0 0 -26.30 27.71 0 0 -22.65 -7.98 52.29 2.29 -0.46 1.83 57.19 34.31 -81.43 5.29 0 0 0 0 0 3.01 0 0 0 0 0 9.37 0.29 2.59 24.22 -1.62 -3.34 4.34 0 0 0 0 0 2.16 0 0 0 0 0 9.47 0.83 0.29 16.96 14.27 7.03 4.77 0 0 0 0 0 2.87 0 0 -0 0 0 8.65 1.01 -1.70 23.79 3.43 14.82 4.54 0 0 0 0 0 2.50 0 0 0 0 0 7.69 0.66 -3.90 21.17 -7.01 16.30 3.21 0 0 0 0 0 1.92 0 0 0 0 0 -4.06 26.61 -1.12 16.00 -5.53 -2.74 -14.17 0 0 61.39 20.08 -4.71 -26.12 0 0 0 0 31.60 -27.71 0 0 16.92 13.70 -24.63 -2.29 -0.46 1.83 -57.19 34.31 81.43 -5.29 0 0 0 0 0 -3.01 0 0 0 0 0 -9.37 0.29 2.59 -24.22 -1.62 3.34 -4.34 0 0 0 0 0 -2.16 0 0 -0 0 0 -9.47 0.83 0.29 -16.96 14.27 -7.03 -4.77 0 0 0 0 0 -2.87 0 0 0 0 0 -8.65 1.01 -1.70 -23.79 3.43 -14.82 -4.54 0 0 0 0 0 -2.50 0 0 -0 0 0 -7.69 0.66 -3.90 -21.17 -7.01 -16.30 -3.21 0 0 -0 0 0 -1.92 0 0 0 0 0 8.73 -0 0 9.12 10.73 -4.49 0 -46.66 0 0 6.85 0 0 -40.14 0 -2.68 -0.27 -0.17 0 -8.88 14.22 0 0 0 -8.73 0 -0 -8.60 10.53 2.23 0 -46.66 0 0 7.84 0 0 -40.14 0 3.11 -0.75 0.22 0 -8.88 14.22 0 0 0 
-0.09 97.66 3.16 -0.36 -5.57 -2.25 -0.02 7.24 0 -0.08 0.97 -0.37 0 16.55 -0 -0.01 7.92 -0.87 0 34.21 -0 0.01 0.58 0.01 0 6.29 0 0.64 -1.33 2.28 4.06 26.61 -1.12 -14.03 -5.42 2.88 14.17 0 0 -62.51 27.03 1.61 26.12 0 0 0 0 -26.52 27.71 0 0 -22.71 -8.65 52.75 2.29 -0.46 1.83 57.19 34.31 -81.43 5.29 0 0 0 0 0 3.01 0 0 0 0 0 9.37 0.29 2.59 24.22 -1.62 -3.34 4.34 0 0 0 0 0 2.16 0 0 0 0 0 9.47 0.83 0.29 16.96 14.27 7.03 4.77 0 0 0 0 0 2.87 0 0 -0 0 0 8.65 1.01 -1.70 23.79 3.43 14.82 4.54 0 0 0 0 0 2.50 0 0 0 0 0 7.69 0.66 -3.90 21.17 -7.01 16.30 3.21 0 0 0 0 0 1.92 0 0 0 0 0 -4.06 26.61 -1.12 16.00 -5.51 -2.67 -14.17 0 0 61.33 19.90 -4.67 -26.12 0 0 0 0 31.79 -27.71 0 0 16.98 13.64 -25.16 -2.29 -0.46 1.83 -57.19 34.31 81.43 -5.29 0 0 0 0 0 -3.01 0 0 0 0 0 -9.37 0.29 2.59 -24.22 -1.62 3.34 -4.34 0 0 0 0 0 -2.16 0 0 -0 0 0 -9.47 0.83 0.29 -16.96 14.27 -7.03 -4.77 0 0 0 0 0 -2.87 0 0 0 0 0 -8.65 1.01 -1.70 -23.79 3.43 -14.82 -4.54 0 0 0 0 0 -2.50 0 0 -0 0 0 -7.69 0.66 -3.90 -21.17 -7.01 -16.30 -3.21 0 0 -0 0 0 -1.92 0 0 0 0 0 8.73 -0 0 9.11 10.70 -4.49 0 -46.66 0 0 6.85 0 0 -40.14 0 -2.69 -0.24 -0.17 0 -8.88 14.22 0 0 0 -8.73 0 -0 -8.59 10.55 2.22 0 -46.66 0 0 7.78 0 0 -40.14 0 3.09 -0.69 0.22 0 -8.88 14.22 0 0 0 
-0.09 97.65 3.14 -0.36 -5.57 -2.28 -0.02 7.24 0 -0.10 0.98 -0.40 0 16.55 -0 -0.01 7.92 -0.86 0 34.21 -0 0.01 0.57 0 0 6.29 0 0.56 -1.30 2.35 4.06 26.61 -1.12 -14.03 -5.40 2.82 14.17 0 0 -62.48 27.50 1.52 26.12 0 0 0 0 -26.73 27.71 0 0 -22.76 -9.32 53.21 2.29 -0.46 1.83 57.19 34.31 -81.43 5.29 0 0 0 0 0 3.01 0 0 0 0 0 9.37 0.29 2.59 24.22 -1.62 -3.34 4.34 0 0 0 0 0 2.16 0 0 0 0 0 9.47 0.83 0.29 16.96 14.27 7.03 4.77 0 0 0 0 0 2.87 0 0 -0 0 0 8.65 1.01 -1.70 23.79 3.43 14.82 4.54 0 0 0 0 0 2.50 0 0 0 0 0 7.69 0.66 -3.90 21.17 -7.01 16.30 3.21 0 0 0 0 0 1.92 0 0 0 0 0 -4.06 26.61 -1.12 16.00 -5.49 -2.61 -14.17 0 0 61.27 19.72 -4.62 -26.12 0 0 0 0 31.98 -27.71 0 0 17.03 13.57 -25.69 -2.29 -0.46 1.83 -57.19 34.31 81.43 -5.29 0 0 0 0 0 -3.01 0 0 0 0 0 -9.37 0.29 2.59 -24.22 -1.62 3.34 -4.34 0 0 0 0 0 -2.16 0 0 -0 0 0 -9.47 0.83 0.29 -16.96 14.27 -7.03 -4.77 0 0 0 0 0 -2.87 0 0 0 0 0 -8.65 1.01 -1.70 -23.79 3.43 -14.82 -4.54 0 0 0 0 0 -2.50 0 0 -0 0 0 -7.69 0.66 -3.90 -21.17 -7.01 -16.30 -3.21 0 0 -0 0 0 -1.92 0 0 0 0 0 8.73 -0 0 9.11 10.68 -4.50 0 -46.66 0 0 6.85 0 0 -40.14 0 -2.71 -0.21 -0.17 0 -8.88 14.22 0 0 0 -8.73 0 -0 -8.58 10.56 2.21 0 -46.66 0 0 7.73 0 0 -40.14 0 3.07 -0.64 0.22 0 -8.88 14.22 0 0 0 
-0.08 97.64 3.11 -0.36 -5.57 -2.32 -0.02 7.24 0 -0.12 0.98 -0.41 0 16.55 -0 -0.01 7.92 -0.86 0 34.21 -0 0 0.57 0 0 6.29 0 0.47 -1.27 2.41 4.06 26.61 -1.12 -14.02 -5.39 2.77 14.17 0 0 -62.45 27.96 1.44 26.12 0 0 0 0 -26.94 27.71 0 0 -22.80 -9.99 53.68 2.29 -0.46 1.83 57.19 34.31 -81.43 5.29 0 0 0 0 0 3.01 0 0 0 0 0 9.37 0.29 2.59 24.22 -1.62 -3.34 4.34 0 0 0 0 0 2.16 0 0 0 0 0 9.47 0.83 0.29 16.96 14.27 7.03 4.77 0 0 0 0 0 2.87 0 0 -0 0 0 8.65 1.01 -1.70 23.79 3.43 14.82 4.54 0 0 0 0 0 2.50 0 0 0 0 0 7.69 0.66 -3.90 21.17 -7.01 16.30 3.21 0 0 0 0 0 1.92 0 0 0 0 0 -4.06 26.61 -1.12 16.01 -5.47 -2.55 -14.17 0 0 61.22 19.54 -4.58 -26.12 0 0 0 0 32.16 -27.71 0 0 17.12 13.51 -26.24 -2.29 -0.46 1.83 -57.19 34.31 81.43 -5.29 0 0 0 0 0 -3.01 0 0 0 0 0 -9.37 0.29 2.59 -24.22 -1.62 3.34 -4.34 0 0 0 0 0 -2.16 0 0 -0 0 0 -9.47 0.83 0.29 -16.96 14.27 -7.03 -4.77 0 0 0 0 0 -2.87 0 0 0 0 0 -8.65 1.01 -1.70 -23.79 3.43 -14.82 -4.54 0 0 0 0 0 -2.50 0 0 -0 0 0 -7.69 0.66 -3.90 -21.17 -7.01 -16.30 -3.21 0 0 -0 0 0 -1.92 0 0 0 0 0 8.73 -0 0 9.10 10.66 -4.51 0 -46.66 0 0 6.85 0 0 -40.14 0 -2.73 -0.18 -0.17 0 -8.88 14.22 0 0 0 -8.73 0 -0 -8.57 10.58 2.21 0 -46.66 0 0 7.67 0 0 -40.14 0 3.05 -0.59 0.21 0 -8.88 14.22 0 0 0 
-0.07 97.64 3.08 -0.37 -5.58 -2.35 -0.02 7.24 0 -0.14 0.98 -0.40 0 16.55 -0 -0 7.92 -0.89 0 34.21 -0 0 0.56 0 0 6.29 0 0.40 -1.24 2.47 4.06 26.61 -1.12 -14.02 -5.38 2.72 14.17 0 0 -62.43 28.40 1.36 26.12 0 0 0 0 -27.12 27.71 0 0 -22.83 -10.63 54.18 2.29 -0.46 1.83 57.19 34.31 -81.43 5.29 0 0 0 0 0 3.01 0 0 0 0 0 9.37 0.29 2.59 24.22 -1.62 -3.34 4.34 0 0 0 0 0 2.16 0 0 0 0 0 9.47 0.83 0.29 16.96 14.27 7.03 4.77 0 0 0 0 0 2.87 0 0 -0 0 0 8.65 1.01 -1.70 23.79 3.43 14.82 4.54 0 0 0 0 0 2.50 0 0 0 0 0 7.69 0.66 -3.90 21.17 -7.01 16.30 3.21 0 0 0 0 0 1.92 0 0 0 0 0 -4.06 26.61 -1.12 16.00 -5.46 -2.50 -14.17 0 0 61.17 19.34 -4.55 -26.12 0 0 0 0 32.30 -27.71 0 0 17.28 13.49 -26.85 -2.29 -0.46 1.83 -57.19 34.31 81.43 -5.29 0 0 0 0 0 -3.01 0 0 0 0 0 -9.37 0.29 2.59 -24.22 -1.62 3.34 -4.34 0 0 0 0 0 -2.16 0 0 -0 0 0 -9.47 0.83 0.29 -16.96 14.27 -7.03 -4.77 0 0 0 0 0 -2.87 0 0 0 0 0 -8.65 1.01 -1.70 -23.79 3.43 -14.82 -4.54 0 0 0 0 0 -2.50 0 0 -0 0 0 -7.69 0.66 -3.90 -21.17 -7.01 -16.30 -3.21 0 0 -0 0 0 -1.92 0 0 0 0 0 8.73 -0 0 9.10 10.63 -4.51 0 -46.66 0 0 6.85 0 0 -40.14 0 -2.74 -0.15 -0.17 0 -8.88 14.22 0 0 0 -8.73 0 -0 -8.56 10.59 2.20 0 -46.66 0 0 7.62 0 0 -40.14 0 3.03 -0.54 0.21 0 -8.88 14.22 0 0 0 
-0.06 97.63 3.05 -0.37 -5.58 -2.38 -0.02 7.24 0 -0.15 0.98 -0.37 0 16.55 -0 -0 7.92 -0.94 0 34.21 -0 0 0.56 0 0 6.29 0 0.33 -1.23 2.53 4.06 26.61 -1.12 -14.02 -5.36 2.67 14.17 0 0 -62.41 28.80 1.28 26.12 0 0 0 0 -27.26 27.71 0 0 -22.84 -11.23 54.71 2.29 -0.46 1.83 57.19 34.31 -81.43 5.29 0 0 0 0 0 3.01 0 0 0 0 0 9.37 0.29 2.59 24.22 -1.62 -3.34 4.34 0 0 0 0 0 2.16 0 0 0 0 0 9.47 0.83 0.29 16.96 14.27 7.03 4.77 0 0 0 0 0 2.87 0 0 -0 0 0 8.65 1.01 -1.70 23.79 3.43 14.82 4.54 0 0 0 0 0 2.50 0 0 0 0 0 7.69 0.66 -3.90 21.17 -7.01 16.30 3.21 0 0 0 0 0 1.92 0 0 0 0 0 -4.06 26.61 -1.12 15.99 -5.45 -2.46 -14.17 0 0 61.14 19.13 -4.54 -26.12 0 0 0 0 32.39 -27.71 0 0 17.54 13.51 -27.55 -2.29 -0.46 1.83 -57.19 34.31 81.43 -5.29 0 0 0 0 0 -3.01 0 0 0 0 0 -9.37 0.29 2.59 -24.22 -1.62 3.34 -4.34 0 0 0 0 0 -2.16 0 0 -0 0 0 -9.47 0.83 0.29 -16.96 14.27 -7.03 -4.77 0 0 0 0 0 -2.87 0 0 0 0 0 -8.65 1.01 -1.70 -23.79 3.43 -14.82 -4.54 0 0 0 0 0 -2.50 0 0 -0 0 0 -7.69 0.66 -3.90 -21.17 -7.01 -16.30 -3.21 0 0 -0 0 0 -1.92 0 0 0 0 0 8.73 -0 0 9.09 10.61 -4.51 0 -46.66 0 0 6.85 0 0 -40.14 0 -2.76 -0.11 -0.17 0 -8.88 14.22 0 0 0 -8.73 0 -0 -8.55 10.60 2.20 0 -46.66 0 0 7.57 0 0 -40.14 0 3.01 -0.49 0.21 0 -8.88 14.22 0 0 0 
-0.06 97.62 3.03 -0.37 -5.59 -2.41 -0.02 7.24 0 -0.17 0.98 -0.34 0 16.55 -0 0 7.92 -0.99 0 34.21 -0 0 0.56 -0 0 6.29 0 0.27 -1.22 2.58 4.06 26.61 -1.12 -14.02 -5.35 2.62 14.17 0 0 -62.40 29.16 1.21 26.12 0 0 0 0 -27.35 27.71 0 0 -22.83 -11.78 55.29 2.29 -0.46 1.83 57.19 34.31 -81.43 5.29 0 0 0 0 0 3.01 0 0 0 0 0 9.37 0.29 2.59 24.22 -1.62 -3.34 4.34 0 0 0 0 0 2.16 0 0 0 0 0 9.47 0.83 0.29 16.96 14.27 7.03 4.77 0 0 0 0 0 2.87 0 0 -0 0 0 8.65 1.01 -1.70 23.79 3.43 14.82 4.54 0 0 0 0 0 2.50 0 0 0 0 0 7.69 0.66 -3.90 21.17 -7.01 16.30 3.21 0 0 0 0 0 1.92 0 0 0 0 0 -4.06 26.61 -1.12 15.98 -5.43 -2.42 -14.17 0 0 61.13 18.89 -4.55 -26.12 0 0 0 0 32.43 -27.71 0 0 17.96 13.57 -28.41 -2.29 -0.46 1.83 -57.19 34.31 81.43 -5.29 0 0 0 0 0 -3.01 0 0 0 0 0 -9.37 0.29 2.59 -24.22 -1.62 3.34 -4.34 0 0 0 0 0 -2.16 0 0 -0 0 0 -9.47 0.83 0.29 -16.96 14.27 -7.03 -4.77 0 0 0 0 0 -2.87 0 0 0 0 0 -8.65 1.01 -1.70 -23.79 3.43 -14.82 -4.54 0 0 0 0 0 -2.50 0 0 -0 0 0 -7.69 0.66 -3.90 -21.17 -7.01 -16.30 -3.21 0 0 -0 0 0 -1.92 0 0 0 0 0 8.73 -0 0 9.09 10.60 -4.51 0 -46.66 0 0 6.84 0 0 -40.14 0 -2.77 -0.08 -0.17 0 -8.88 14.22 0 0 0 -8.73 0 -0 -8.55 10.60 2.20 0 -46.66 0 0 7.53 0 0 -40.14 0 2.99 -0.44 0.21 0 -8.88 14.22 0 0 0 
-0.05 97.61 3.00 -0.37 -5.59 -2.43 -0.02 7.24 0 -0.18 0.98 -0.30 0 16.55 -0 0.01 7.92 -1.04 0 34.21 -0 0 0.56 -0 0 6.29 0 0.22 -1.21 2.63 4.06 26.61 -1.12 -14.02 -5.34 2.59 14.17 0 0 -62.40 29.46 1.14 26.12 0 0 0 0 -27.34 27.71 0 0 -22.79 -12.26 56.00 2.29 -0.46 1.83 57.19 34.31 -81.43 5.29 0 0 0 0 0 3.01 0 0 0 0 0 9.37 0.29 2.59 24.22 -1.62 -3.34 4.34 0 0 0 0 0 2.16 0 0 0 0 0 9.47 0.83 0.29 16.96 14.27 7.03 4.77 0 0 0 0 0 2.87 0 0 -0 0 0 8.65 1.01 -1.70 23.79 3.43 14.82 4.54 0 0 0 0 0 2.50 0 0 0 0 0 7.69 0.66 -3.90 21.17 -7.01 16.30 3.21 0 0 0 0 0 1.92 0 0 0 0 0 -4.06 26.61 -1.12 15.95 -5.43 -2.40 -14.17 0 0 61.13 18.61 -4.56 -26.12 0 0 0 0 32.41 -27.71 0 0 18.52 13.65 -29.45 -2.29 -0.46 1.83 -57.19 34.31 81.43 -5.29 0 0 0 0 0 -3.01 0 0 0 0 0 -9.37 0.29 2.59 -24.22 -1.62 3.34 -4.34 0 0 0 0 0 -2.16 0 0 -0 0 0 -9.47 0.83 0.29 -16.96 14.27 -7.03 -4.77 0 0 0 0 0 -2.87 0 0 0 0 0 -8.65 1.01 -1.70 -23.79 3.43 -14.82 -4.54 0 0 0 0 0 -2.50 0 0 -0 0 0 -7.69 0.66 -3.90 -21.17 -7.01 -16.30 -3.21 0 0 -0 0 0 -1.92 0 0 0 0 0 8.73 -0 0 9.08 10.58 -4.50 0 -46.66 0 0 6.82 0 0 -40.14 0 -2.78 -0.04 -0.17 0 -8.88 14.22 0 0 0 -8.73 0 -0 -8.55 10.60 2.22 0 -46.66 0 0 7.49 0 0 -40.14 0 2.98 -0.39 0.20 0 -8.88 14.22 0 0 0 
